<svg width="141" height="134" viewBox="0 0 141 134" fill="none" xmlns="http://www.w3.org/2000/svg">
<path d="M97.0729 107.346C97.0729 121.64 85.0004 133.228 70.1082 133.228C55.216 133.228 43.1435 121.64 43.1435 107.346C43.1435 93.0516 55.216 77.9219 70.1082 77.9219C85.0004 77.9219 97.0729 93.0516 97.0729 107.346Z" fill="#D9D9D9" fill-opacity="0.7"/>
<path d="M42.7724 25.885C42.868 11.5909 55.0177 0.0776232 69.9096 0.169338C84.8015 0.261052 96.7963 11.9231 96.7007 26.2172C96.6052 40.5113 84.4318 55.5663 69.5399 55.4746C54.648 55.3828 42.6769 40.1791 42.7724 25.885Z" fill="#D9D9D9" fill-opacity="0.7"/>
<path d="M26.9557 93.2917C12.0686 92.9188 0.315206 81.0325 0.703754 66.743C1.0923 52.4535 13.4757 41.1719 28.3628 41.5448C43.2499 41.9178 58.692 53.8964 58.3034 68.186C57.9149 82.4755 41.8429 93.6647 26.9557 93.2917Z" fill="#D9D9D9" fill-opacity="0.7"/>
<path d="M112.965 41.2304C127.855 41.0281 140.098 52.4508 140.308 66.7437C140.519 81.0367 128.619 92.7875 113.728 92.9898C98.8374 93.1921 82.9057 81.8195 82.6949 67.5266C82.4841 53.2336 98.074 41.4327 112.965 41.2304Z" fill="#D9D9D9" fill-opacity="0.7"/>
</svg>
